<svg width="133" height="41" viewBox="0 0 133 41" fill="none" xmlns="http://www.w3.org/2000/svg">
<g clip-path="url(#clip0_329_16185)">
<path fill-rule="evenodd" clip-rule="evenodd" d="M82.4426 31.6146C74.7201 37.2999 63.5268 40.3333 53.8896 40.3333C40.3767 40.3333 28.2117 35.3413 19.0083 27.0385C18.2852 26.3856 18.9331 25.4958 19.8008 26.0043C29.733 31.7763 42.0138 35.2488 54.6995 35.2488C63.255 35.2488 72.6665 33.4808 81.3204 29.8119C82.6277 29.2572 83.721 30.667 82.4426 31.6146Z" fill="#1F2024"/>
<path fill-rule="evenodd" clip-rule="evenodd" d="M85.653 27.9455C84.6696 26.686 79.128 27.3504 76.6406 27.6451C75.8828 27.7375 75.7671 27.0789 76.4497 26.6051C80.8634 23.5024 88.1057 24.3979 88.9503 25.4379C89.7948 26.4837 88.7305 33.7349 84.5829 37.1958C83.9466 37.7274 83.3392 37.4443 83.6226 36.7394C84.554 34.4167 86.6422 29.2109 85.653 27.9455Z" fill="#1F2024"/>
<path fill-rule="evenodd" clip-rule="evenodd" d="M76.8141 4.70131V1.68528C76.8141 1.22883 77.1612 0.922607 77.5777 0.922607H91.0964C91.5302 0.922607 91.8773 1.23461 91.8773 1.68528V4.26798C91.8715 4.70131 91.5071 5.26754 90.8592 6.16311L83.854 16.153C86.4571 16.0894 89.2048 16.4765 91.565 17.8055C92.0971 18.1059 92.2418 18.545 92.2822 18.9784V22.1966C92.2822 22.6357 91.7963 23.1499 91.2873 22.8842C87.1281 20.7059 81.6038 20.469 77.005 22.9073C76.5365 23.1615 76.0448 22.6531 76.0448 22.2139V19.1575C76.0448 18.6663 76.0506 17.8286 76.5423 17.0832L84.6581 5.45821H77.5951C77.1612 5.45821 76.8141 5.15199 76.8141 4.70131Z" fill="#1F2024"/>
<path fill-rule="evenodd" clip-rule="evenodd" d="M27.5001 23.5196H23.3873C22.9939 23.4908 22.6815 23.1961 22.6526 22.8205V1.73719C22.6526 1.31541 23.0055 0.980295 23.4451 0.980295H27.2803C27.6795 0.997617 27.9976 1.30385 28.0265 1.68519V4.44122H28.1017C29.1025 1.77764 30.9825 0.5354 33.5162 0.5354C36.0903 0.5354 37.6984 1.77764 38.8554 4.44122C39.8503 1.77764 42.1121 0.5354 44.5359 0.5354C46.2597 0.5354 48.1455 1.24607 49.2966 2.84076C50.5982 4.61455 50.3321 7.19147 50.3321 9.45061L50.3263 22.757C50.3263 23.1787 49.9734 23.5196 49.5338 23.5196H45.4267C45.016 23.4908 44.6863 23.1614 44.6863 22.757V11.5826C44.6863 10.6928 44.7673 8.47415 44.5706 7.63058C44.264 6.21502 43.3443 5.81634 42.1526 5.81634C41.1577 5.81634 40.1164 6.48079 39.6941 7.54392C39.2719 8.60704 39.3124 10.3866 39.3124 11.5826V22.757C39.3124 23.1787 38.9595 23.5196 38.5199 23.5196H34.4128C33.9963 23.4908 33.6723 23.1614 33.6723 22.757L33.6666 11.5826C33.6666 9.23105 34.0541 5.77012 31.1329 5.77012C28.1769 5.77012 28.2926 9.14438 28.2926 11.5826V22.757C28.2926 23.1787 27.9398 23.5196 27.5001 23.5196Z" fill="#1F2024"/>
<path fill-rule="evenodd" clip-rule="evenodd" d="M103.516 0.5354C109.619 0.5354 112.922 5.77012 112.922 12.4262C112.922 18.8569 109.272 23.9588 103.516 23.9588C97.5231 23.9588 94.2606 18.724 94.2606 12.2009C94.2606 5.63723 97.5636 0.5354 103.516 0.5354ZM103.551 4.83989C100.52 4.83989 100.329 8.96526 100.329 11.5364C100.329 14.1133 100.288 19.6138 103.516 19.6138C106.703 19.6138 106.854 15.1764 106.854 12.4724C106.854 10.6928 106.779 8.5666 106.241 6.87946C105.778 5.4119 104.858 4.83989 103.551 4.83989Z" fill="#1F2024"/>
<path fill-rule="evenodd" clip-rule="evenodd" d="M120.835 23.5196H116.74C116.329 23.4908 115.999 23.1614 115.999 22.757L115.993 1.66786C116.028 1.28074 116.369 0.980295 116.786 0.980295H120.598C120.957 0.997617 121.252 1.2403 121.333 1.56963V4.79367H121.408C122.559 1.91053 124.173 0.5354 127.013 0.5354C128.858 0.5354 130.657 1.19985 131.814 3.01987C132.89 4.707 132.89 7.54392 132.89 9.58349V22.8552C132.844 23.225 132.503 23.5196 132.098 23.5196H127.973C127.597 23.4908 127.285 23.2134 127.245 22.8552V11.4035C127.245 9.09816 127.511 5.7239 124.67 5.7239C123.67 5.7239 122.75 6.39413 122.293 7.41103C121.714 8.69949 121.639 9.98217 121.639 11.4035V22.757C121.633 23.1787 121.275 23.5196 120.835 23.5196Z" fill="#1F2024"/>
<path fill-rule="evenodd" clip-rule="evenodd" d="M66.0374 13.4489C66.0374 15.0494 66.0779 16.3841 65.268 17.8054C64.6144 18.961 63.5731 19.6717 62.422 19.6717C60.8428 19.6717 59.9172 18.4699 59.9172 16.6961C59.9172 13.1947 63.0583 12.5592 66.0374 12.5592V13.4489ZM70.185 23.4619C69.9131 23.7046 69.5197 23.7219 69.2131 23.5602C67.848 22.4277 67.5992 21.9019 66.853 20.8215C64.597 23.121 62.9946 23.8086 60.0734 23.8086C56.6084 23.8086 53.9186 21.6766 53.9186 17.4068C53.9186 14.073 55.7234 11.8023 58.3033 10.6929C60.5362 9.71068 63.6541 9.53735 66.0374 9.26579V8.73423C66.0374 7.75777 66.1126 6.6022 65.5341 5.75864C65.0366 5.00174 64.0764 4.68974 63.226 4.68974C61.6584 4.68974 60.2643 5.49286 59.923 7.15688C59.8536 7.52666 59.5817 7.89067 59.2057 7.908L55.2201 7.48044C54.8846 7.40533 54.5086 7.13377 54.6069 6.61954C55.5209 1.78927 59.8941 0.333252 63.8045 0.333252C65.806 0.333252 68.4206 0.864814 69.9998 2.37861C72.0013 4.24485 71.8104 6.7351 71.8104 9.4449V15.8467C71.8104 17.7708 72.6087 18.6143 73.3607 19.6543C73.621 20.0241 73.6789 20.469 73.3433 20.7464C72.5046 21.4455 71.0121 22.7455 70.1907 23.4735L70.185 23.4619Z" fill="#1F2024"/>
<path fill-rule="evenodd" clip-rule="evenodd" d="M12.1188 13.4489C12.1188 15.0494 12.1593 16.3841 11.3494 17.8054C10.6958 18.961 9.66033 19.6717 8.50341 19.6717C6.9242 19.6717 6.00445 18.4699 6.00445 16.6961C6.00445 13.1947 9.1455 12.5592 12.1188 12.5592V13.4489ZM16.2664 23.4619C15.9945 23.7046 15.6011 23.7219 15.2946 23.5602C13.9294 22.4277 13.6864 21.9019 12.9344 20.8215C10.6784 23.121 9.08187 23.8086 6.15485 23.8086C2.69563 23.8086 0 21.6766 0 17.4068C0 14.073 1.81059 11.8023 4.38475 10.6929C6.61762 9.71068 9.73553 9.53735 12.1188 9.26579V8.73423C12.1188 7.75777 12.194 6.6022 11.6213 5.75864C11.1181 5.00174 10.1578 4.68974 9.31326 4.68974C7.74562 4.68974 6.34574 5.49286 6.00445 7.15688C5.93503 7.52666 5.66315 7.89067 5.29294 7.908L1.30154 7.48044C0.966033 7.40533 0.595816 7.13377 0.68837 6.61954C1.60813 1.78927 5.97552 0.333252 9.88594 0.333252C11.8874 0.333252 14.5021 0.864814 16.0813 2.37861C18.0828 4.24485 17.8919 6.7351 17.8919 9.4449V15.8467C17.8919 17.7708 18.6901 18.6143 19.4422 19.6543C19.7082 20.0241 19.7661 20.469 19.4306 20.7464C18.5918 21.4455 17.0994 22.7455 16.2779 23.4735L16.2664 23.4619Z" fill="#1F2024"/>
</g>
<defs>
<clipPath id="clip0_329_16185">
<rect width="132.89" height="40" fill="white" transform="translate(0 0.333252)"/>
</clipPath>
</defs>
</svg>
