<svg width="31" height="38" viewBox="0 0 31 38" fill="none" xmlns="http://www.w3.org/2000/svg">
<g clip-path="url(#clip0_329_16172)">
<path d="M7.74154 37.1683C6.97631 36.9124 6.21109 36.4006 5.70094 35.3771C5.19079 34.8653 4.68064 34.0976 3.91542 33.074C2.89512 31.5387 1.87482 29.4915 1.10959 27.4444C0.344369 25.1414 0.0892944 22.8384 0.0892944 20.5353C0.0892944 17.9764 0.599444 15.9293 1.61974 14.138C2.38497 12.6027 3.66034 11.5791 4.93572 10.5555C6.21109 9.78786 7.74154 9.27608 9.27199 9.27608C9.78214 9.27608 10.2923 9.27608 11.0575 9.53197C11.5677 9.53197 12.0778 9.78786 12.843 10.0438C13.6083 10.2996 14.1184 10.5555 14.3735 10.5555C14.8836 10.8114 15.3938 10.8114 15.6489 10.8114C15.9039 10.8114 16.159 10.8114 16.6692 10.5555C16.9242 10.5555 17.4344 10.2996 17.9445 10.0438C18.4547 9.78786 18.9648 9.53197 19.475 9.53197C19.9851 9.53197 20.4953 9.27608 21.0054 9.27608C21.5156 9.27608 22.2808 9.02019 22.7909 9.27608C23.8112 9.27608 24.8315 9.53197 25.8518 10.0438C27.3823 10.5555 28.6577 11.835 29.678 13.1145C29.4229 13.1145 28.9127 13.3703 28.6577 13.8821C27.8924 14.6498 27.1272 15.4175 26.6171 16.1852C26.1069 17.4646 25.5968 18.7441 25.5968 20.2794C25.5968 22.0707 26.1069 23.606 26.8721 24.8855C27.3823 25.9091 28.4026 26.6767 29.1678 27.1885C29.933 27.4444 30.4432 27.7003 30.6983 27.9562C30.6983 28.468 30.4432 29.2357 30.1881 29.4915C29.678 31.0269 28.9127 32.0505 28.1475 33.3299C27.3823 34.3535 26.8721 35.1212 26.6171 35.3771C25.8518 36.1447 25.3417 36.9124 24.5765 37.1683C24.0663 37.6801 23.3011 37.936 22.2808 37.936C21.7706 37.936 21.2605 37.936 20.7504 37.6801C20.4953 37.6801 19.9851 37.4242 19.475 37.1683C18.7098 36.9124 18.4547 36.6565 17.9445 36.6565C17.4344 36.4006 16.6692 36.4006 16.159 36.4006C15.6489 36.4006 14.8836 36.4006 14.3735 36.6565C13.8633 36.6565 13.3532 36.9124 12.843 37.1683C12.0778 37.4242 11.8227 37.6801 11.5677 37.6801C11.0575 37.936 10.5474 37.936 10.0372 37.936C9.27199 37.936 8.50676 37.6801 7.74154 37.1683ZM18.4547 7.99662C17.4344 8.5084 16.4141 8.76429 15.3938 8.76429C15.1387 7.74073 15.3938 6.71716 15.9039 5.4377C16.4141 4.41413 16.6692 3.64645 17.4344 2.87878C18.1996 2.1111 18.9648 1.34343 19.9851 0.831641C21.0054 0.319857 22.0257 0.0639648 23.046 0.0639648C23.046 1.08753 22.7909 2.1111 22.5359 3.39056C22.2808 4.41413 21.5156 5.18181 21.0054 5.94948C20.2402 6.97305 19.475 7.48483 18.4547 7.99662Z" fill="#F46036"/>
</g>
<defs>
<clipPath id="clip0_329_16172">
<rect width="30.864" height="38.1279" fill="white" transform="translate(0.0892944 0.0639648)"/>
</clipPath>
</defs>
</svg>
