<svg width="33" height="40" viewBox="0 0 33 40" fill="none" xmlns="http://www.w3.org/2000/svg">
<g clip-path="url(#clip0_631_112)">
<g clip-path="url(#clip1_631_112)">
<path d="M8.14923 39.1246C7.34373 38.8552 6.53823 38.3165 6.00123 37.2391C5.46423 36.7003 4.92723 35.8923 4.12173 34.8148C3.04774 33.1987 1.97374 31.0438 1.16824 28.8889C0.362738 26.4647 0.0942383 24.0404 0.0942383 21.6162C0.0942383 18.9226 0.631238 16.7677 1.70524 14.8822C2.51074 13.266 3.85324 12.1886 5.19573 11.1111C6.53823 10.3031 8.14923 9.76434 9.76023 9.76434C10.2972 9.76434 10.8342 9.76434 11.6397 10.0337C12.1767 10.0337 12.7137 10.3031 13.5192 10.5724C14.3247 10.8418 14.8617 11.1111 15.1302 11.1111C15.6672 11.3805 16.2042 11.3805 16.4727 11.3805C16.7412 11.3805 17.0097 11.3805 17.5467 11.1111C17.8152 11.1111 18.3522 10.8418 18.8892 10.5724C19.4262 10.3031 19.9632 10.0337 20.5002 10.0337C21.0372 10.0337 21.5742 9.76434 22.1112 9.76434C22.6482 9.76434 23.4537 9.49498 23.9907 9.76434C25.0647 9.76434 26.1387 10.0337 27.2127 10.5724C28.8237 11.1111 30.1662 12.4579 31.2402 13.8047C30.9717 13.8047 30.4347 14.0741 30.1662 14.6128C29.3607 15.4209 28.5552 16.229 28.0182 17.0371C27.4812 18.3839 26.9442 19.7307 26.9442 21.3468C26.9442 23.2323 27.4812 24.8485 28.2867 26.1953C28.8237 27.2727 29.8977 28.0808 30.7032 28.6195C31.5087 28.8889 32.0457 29.1583 32.3142 29.4276C32.3142 29.9663 32.0457 30.7744 31.7772 31.0438C31.2402 32.6599 30.4347 33.7374 29.6292 35.0842C28.8237 36.1616 28.2867 36.9697 28.0182 37.2391C27.2127 38.0471 26.6757 38.8552 25.8702 39.1246C25.3332 39.6633 24.5277 39.9327 23.4537 39.9327C22.9167 39.9327 22.3797 39.9327 21.8427 39.6633C21.5742 39.6633 21.0372 39.3939 20.5002 39.1246C19.6947 38.8552 19.4262 38.5859 18.8892 38.5859C18.3522 38.3165 17.5467 38.3165 17.0097 38.3165C16.4727 38.3165 15.6672 38.3165 15.1302 38.5859C14.5932 38.5859 14.0562 38.8552 13.5192 39.1246C12.7137 39.3939 12.4452 39.6633 12.1767 39.6633C11.6397 39.9327 11.1027 39.9327 10.5657 39.9327C9.76023 39.9327 8.95473 39.6633 8.14923 39.1246ZM19.4262 8.41754C18.3522 8.95626 17.2782 9.22562 16.2042 9.22562C15.9357 8.14818 16.2042 7.07074 16.7412 5.72394C17.2782 4.6465 17.5467 3.83842 18.3522 3.03034C19.1577 2.22226 19.9632 1.41418 21.0372 0.875463C22.1112 0.336743 23.1852 0.0673828 24.2592 0.0673828C24.2592 1.14482 23.9907 2.22226 23.7222 3.56906C23.4537 4.6465 22.6482 5.45458 22.1112 6.26266C21.3057 7.3401 20.5002 7.87882 19.4262 8.41754Z" fill="white"/>
</g>
</g>
<defs>
<clipPath id="clip0_631_112">
<rect width="32.4138" height="40" rx="16.2069" fill="white"/>
</clipPath>
<clipPath id="clip1_631_112">
<rect width="32.4885" height="40.1346" fill="white" transform="translate(0.0942383 0.0673828)"/>
</clipPath>
</defs>
</svg>
