<svg width="176" height="82" viewBox="0 0 176 82" fill="none" xmlns="http://www.w3.org/2000/svg">
<g clip-path="url(#clip0_577_20294)">
<path d="M132.335 19.1904L159.22 9.60221C159.894 9.36494 160.629 8.8625 160.384 8.44381C160.139 8.02511 158.944 7.77389 158.087 7.70411C155.178 7.45289 152.024 7.8995 149.728 8.72294L122.843 18.3111C122.169 18.5484 121.434 19.0508 121.679 19.4695C121.924 19.8882 123.118 20.1394 123.976 20.2092C126.885 20.4605 130.039 20.0138 132.335 19.1904Z" fill="white"/>
<path d="M99.0807 30.7323C105.634 28.4574 112.248 26.1964 118.892 23.9773C119.566 23.754 120.301 23.2236 120.056 22.8189C119.811 22.3863 118.617 22.149 117.759 22.0792C114.758 21.828 111.788 22.3025 109.4 23.098C102.755 25.3171 96.1411 27.5781 89.5883 29.853C88.9146 30.0903 88.1797 30.6067 88.4247 31.0114C88.6696 31.4162 89.8638 31.6814 90.7212 31.7511C93.6608 32.0024 96.7535 31.5418 99.0807 30.7323Z" fill="white"/>
<path d="M67.0211 42.3025C73.4515 39.9996 79.8206 37.6689 86.0978 35.2823C86.7715 35.0311 87.537 34.5426 87.2614 34.1239C86.9858 33.7052 85.8222 33.454 84.9648 33.3842C82.1171 33.1469 78.8101 33.5656 76.6054 34.403C70.3281 36.7896 63.9284 39.1064 57.5287 41.4232C56.855 41.6605 56.1201 42.1629 56.3651 42.5816C56.6101 43.0003 57.8043 43.2515 58.6616 43.3213C61.5706 43.5725 64.7245 43.1259 67.0211 42.3025Z" fill="white"/>
<path d="M33.338 54.4166C39.1866 52.2673 45.0657 50.1599 50.9449 48.0524C51.6186 47.8151 52.3535 47.3127 52.1085 46.894C51.8635 46.4753 50.6693 46.2241 49.8119 46.1543C46.903 45.9031 43.749 46.3497 41.4525 47.1731C35.5427 49.2806 29.6635 51.388 23.8456 53.5374C23.1719 53.7886 22.437 54.2771 22.682 54.6957C22.927 55.1144 24.1212 55.3657 24.9785 55.4355C27.8569 55.6727 31.0721 55.2401 33.338 54.4166Z" fill="white"/>
<path d="M-0.987608 68.0523C5.65709 65.1214 12.5467 62.3161 19.5895 59.5945C20.2632 59.3433 21.0287 58.8688 20.7531 58.4361C20.4775 58.0035 19.3139 57.7662 18.4565 57.6964C15.6394 57.4592 12.2712 57.8639 10.0971 58.7153C3.05432 61.4368 -3.83534 64.2561 -10.48 67.173C-11.1231 67.4521 -11.9192 67.8848 -11.6436 68.3314C-11.368 68.778 -10.2044 69.0013 -9.34706 69.0711C-6.68306 69.2944 -3.00858 68.9315 -0.987608 68.0523Z" fill="white"/>
<path d="M149.513 6.69929C152.545 5.9875 155.943 5.26176 159.22 4.63371C162.496 4.00566 166.446 3.29387 169.08 2.88913L163.629 2.84726C164.303 3.05661 164.272 3.79631 164.119 4.11732C163.813 4.74536 163.109 5.26176 162.435 5.82002C160.659 7.25755 158.883 8.70904 157.107 10.1466C153.494 13.0775 149.911 16.0223 146.359 18.9672C145.104 19.9999 147.462 20.4745 149.452 20.5024C151.779 20.5303 155.699 20.1116 156.985 19.0788C160.383 16.3991 163.721 13.7055 167.059 11.0119C168.651 9.71392 170.274 8.42991 171.866 7.13194C173.305 5.95959 175.388 4.67558 175.878 3.30783C176.306 2.14943 175.449 0.79564 172.938 0.251332C169.263 -0.558152 164.058 0.725857 160.537 1.32599C154.259 2.41461 148.166 3.69862 142.195 5.10823C140.48 5.51298 138.827 6.65742 141.154 7.18777C143.695 7.77395 147.155 7.22964 149.452 6.68533L149.513 6.69929Z" fill="white"/>
</g>
<defs>
<clipPath id="clip0_577_20294">
<rect width="295" height="83" fill="white" transform="translate(-119)"/>
</clipPath>
</defs>
</svg>
