<svg width="160" height="47" viewBox="0 0 160 47" fill="none" xmlns="http://www.w3.org/2000/svg">
<g clip-path="url(#clip0_329_16182)">
<path d="M160 0.399902V46.2666H114.286V0.399902H160ZM102.857 0.399902V46.2666H57.1429V0.399902H102.857ZM45.7143 0.399902V46.2666H0V0.399902H45.7143ZM139.265 10.1739C137.197 10.1739 135.347 10.5015 133.714 11.1021C132.136 11.6482 130.667 12.5764 129.469 13.7777C128.272 14.9243 127.347 16.344 126.748 17.9275C126.095 19.5656 125.823 21.3675 125.823 23.3332C125.823 25.4082 126.15 27.2101 126.748 28.8482C127.347 30.4862 128.218 31.8513 129.361 32.998C130.503 34.1447 131.864 35.0183 133.551 35.6189C135.184 36.2196 137.034 36.5472 139.102 36.5472C140.626 36.5472 142.15 36.3834 143.51 36.0558C144.816 35.7828 146.068 35.2913 147.211 34.6361V29.7218C144.98 31.0869 142.422 31.8513 139.864 31.7967C138.122 31.7967 136.653 31.4691 135.401 30.8139C134.204 30.1586 133.224 29.1758 132.626 27.9199C131.973 26.664 131.646 25.1351 131.646 23.3332C131.646 21.5313 131.973 20.0024 132.626 18.7466C133.279 17.5453 134.259 16.5078 135.51 15.9072C136.762 15.252 138.286 14.9243 140.027 14.9243C141.333 14.9243 142.531 15.0882 143.673 15.4158C144.816 15.7434 145.905 16.2348 146.884 16.9447V11.8666C145.742 11.2659 144.599 10.8291 143.347 10.5561C141.986 10.2831 140.626 10.1739 139.265 10.1739ZM79.6735 10.4469H70.0408V36.2196H80.2721C82.2857 36.2196 84.0272 35.9466 85.4966 35.2913C86.966 34.6907 88.0544 33.817 88.8163 32.725C89.5782 31.6329 90.0136 30.2678 90.0136 28.7389C90.0136 27.1555 89.6327 25.845 88.8163 24.7529C88 23.6609 86.8571 22.8418 85.3333 22.3504C86.4218 21.8043 87.2381 21.0945 87.8367 20.2209C88.381 19.2926 88.6531 18.2551 88.6531 17.0539C88.6531 14.9243 87.8912 13.2863 86.3129 12.1396C84.7347 10.9929 82.5034 10.4469 79.6735 10.4469ZM22.5306 10.4469H12.8435V36.2196H23.0748C25.0884 36.2196 26.8299 35.9466 28.2993 35.2913C29.7687 34.6907 30.8571 33.817 31.619 32.725C32.381 31.6329 32.8163 30.2678 32.8163 28.7389C32.8163 27.1555 32.4354 25.845 31.619 24.7529C30.8027 23.6609 29.6599 22.8418 28.1361 22.3504C29.2245 21.8043 30.0408 21.0945 30.6395 20.2209C31.1837 19.2926 31.4558 18.2551 31.4558 17.0539C31.4558 14.9243 30.6939 13.2863 29.1156 12.1396C27.5374 10.9929 25.3605 10.4469 22.5306 10.4469ZM79.8367 25.0805C83.0476 25.0805 84.6259 26.2818 84.6259 28.6297C84.6259 29.7218 84.1905 30.5955 83.3742 31.1961C82.5578 31.7967 81.3061 32.0697 79.7823 32.0697H75.2109V25.0805H79.8367ZM22.6939 25.0805C25.9048 25.0805 27.483 26.2818 27.483 28.6297C27.483 29.7218 27.0476 30.5955 26.2313 31.1961C25.415 31.7967 24.1633 32.0697 22.6395 32.0697H18.068V25.0805H22.6939ZM79.1837 14.5967C81.9592 14.5967 83.3197 15.6342 83.3197 17.6545C83.3197 18.692 82.9388 19.511 82.2313 20.1116C81.5238 20.7123 80.4898 20.9853 79.1292 20.9853H75.1565V14.5967H79.1837ZM22.0408 14.5967C24.8163 14.5967 26.1769 15.6342 26.1769 17.6545C26.1769 18.692 25.7959 19.511 25.0884 20.1116C24.381 20.7123 23.3469 20.9853 21.9864 20.9853H18.0136V14.5967H22.0408Z" fill="#1F2024"/>
</g>
<defs>
<clipPath id="clip0_329_16182">
<rect width="160" height="45.8667" fill="white" transform="translate(0 0.399902)"/>
</clipPath>
</defs>
</svg>
