<svg width="40" height="40" viewBox="0 0 40 40" fill="none" xmlns="http://www.w3.org/2000/svg">
<path d="M36.6667 25C36.6667 31.45 31.45 36.6667 25 36.6667L26.75 33.75" stroke="white" stroke-width="1.5" stroke-linecap="round" stroke-linejoin="round"/>
<path d="M3.3335 14.9999C3.3335 8.54992 8.55016 3.33325 15.0002 3.33325L13.2502 6.24992" stroke="white" stroke-width="1.5" stroke-linecap="round" stroke-linejoin="round"/>
<path d="M36.6667 6.99992V7.18325C36.6667 7.64992 36.3 8.01659 35.8333 8.01659H20.8333C20.3667 8.01659 20 7.64992 20 7.18325V6.99992C20 4.06659 20.7333 3.33325 23.7 3.33325H32.9667C35.9333 3.33325 36.6667 4.06659 36.6667 6.99992Z" fill="white"/>
<path d="M20.8333 9.68335C20.3667 9.68335 20 10.05 20 10.5167V12.1833V13.8333C20 16.7667 20.7333 17.5 23.7 17.5H32.9667C35.9333 17.5 36.6667 16.7667 36.6667 13.8333V12.1833V10.5167C36.6667 10.05 36.3 9.68335 35.8333 9.68335H20.8333Z" fill="white"/>
<path d="M20.0002 26.1667V26.35C20.0002 26.8167 19.6335 27.1833 19.1668 27.1833H4.16683C3.70016 27.1833 3.3335 26.8167 3.3335 26.35V26.1667C3.3335 23.2333 4.06683 22.5 7.0335 22.5H16.3002C19.2668 22.5 20.0002 23.2333 20.0002 26.1667Z" fill="white"/>
<path d="M4.16683 28.8501C3.70016 28.8501 3.3335 29.2168 3.3335 29.6834V31.3501V33.0001C3.3335 35.9334 4.06683 36.6668 7.0335 36.6668H16.3002C19.2668 36.6668 20.0002 35.9334 20.0002 33.0001V31.3501V29.6834C20.0002 29.2168 19.6335 28.8501 19.1668 28.8501H4.16683Z" fill="white"/>
</svg>
