<svg width="40" height="40" viewBox="0 0 40 40" fill="none" xmlns="http://www.w3.org/2000/svg">
<path d="M36.6668 12.5833C36.6668 13.6833 35.7668 14.5833 34.6668 14.5833H5.3335C4.2335 14.5833 3.3335 13.6833 3.3335 12.5833V12.5666C3.3335 8.74996 6.41683 5.66663 10.2335 5.66663H29.7502C33.5668 5.66663 36.6668 8.76663 36.6668 12.5833Z" fill="white"/>
<path d="M3.3335 19.0834V27.4334C3.3335 31.25 6.41683 34.3334 10.2335 34.3334H29.7502C33.5668 34.3334 36.6668 31.2334 36.6668 27.4167V19.0834C36.6668 17.9834 35.7668 17.0834 34.6668 17.0834H5.3335C4.2335 17.0834 3.3335 17.9834 3.3335 19.0834ZM13.3335 28.75H10.0002C9.31683 28.75 8.75016 28.1834 8.75016 27.5C8.75016 26.8167 9.31683 26.25 10.0002 26.25H13.3335C14.0168 26.25 14.5835 26.8167 14.5835 27.5C14.5835 28.1834 14.0168 28.75 13.3335 28.75ZM24.1668 28.75H17.5002C16.8168 28.75 16.2502 28.1834 16.2502 27.5C16.2502 26.8167 16.8168 26.25 17.5002 26.25H24.1668C24.8502 26.25 25.4168 26.8167 25.4168 27.5C25.4168 28.1834 24.8502 28.75 24.1668 28.75Z" fill="white"/>
</svg>
