<svg width="96" height="96" viewBox="0 0 96 96" fill="none" xmlns="http://www.w3.org/2000/svg">
<g filter="url(#filter0_d_577_20644)">
<circle cx="46" cy="46" r="40" fill="#3F86EB"/>
</g>
<path d="M51.3946 61.414L45.9997 69.121L40.6047 61.414H26.1815C25.5975 61.414 25.0374 61.182 24.6244 60.769C24.2115 60.356 23.9795 59.796 23.9795 59.2119V28.3837C23.9795 27.7996 24.2115 27.2396 24.6244 26.8266C25.0374 26.4136 25.5975 26.1816 26.1815 26.1816H65.8179C66.4019 26.1816 66.962 26.4136 67.3749 26.8266C67.7879 27.2396 68.0199 27.7996 68.0199 28.3837V59.2119C68.0199 59.796 67.7879 60.356 67.3749 60.769C66.962 61.182 66.4019 61.414 65.8179 61.414H51.3946Z" fill="white"/>
<defs>
<filter id="filter0_d_577_20644" x="0" y="0" width="96" height="96" filterUnits="userSpaceOnUse" color-interpolation-filters="sRGB">
<feFlood flood-opacity="0" result="BackgroundImageFix"/>
<feColorMatrix in="SourceAlpha" type="matrix" values="0 0 0 0 0 0 0 0 0 0 0 0 0 0 0 0 0 0 127 0" result="hardAlpha"/>
<feMorphology radius="4" operator="dilate" in="SourceAlpha" result="effect1_dropShadow_577_20644"/>
<feOffset dx="2" dy="2"/>
<feGaussianBlur stdDeviation="2"/>
<feComposite in2="hardAlpha" operator="out"/>
<feColorMatrix type="matrix" values="0 0 0 0 0.247059 0 0 0 0 0.52549 0 0 0 0 0.921569 0 0 0 0.15 0"/>
<feBlend mode="normal" in2="BackgroundImageFix" result="effect1_dropShadow_577_20644"/>
<feBlend mode="normal" in="SourceGraphic" in2="effect1_dropShadow_577_20644" result="shape"/>
</filter>
</defs>
</svg>
