<svg width="160" height="75" viewBox="0 0 160 75" fill="none" xmlns="http://www.w3.org/2000/svg">
<g clip-path="url(#clip0_329_16179)">
<path d="M49.7778 21.3333H37.3333C33.0899 21.3333 29.0202 23.019 26.0196 26.0196C23.019 29.0202 21.3333 33.0899 21.3333 37.3333C21.3333 41.5768 23.019 45.6465 26.0196 48.647C29.0202 51.6476 33.0899 53.3333 37.3333 53.3333H51.2533C51.805 53.3333 52.334 53.1142 52.7241 52.7241C53.1142 52.334 53.3333 51.805 53.3333 51.2533V14.5244C53.3371 11.3241 54.3978 8.21467 56.3505 5.67917C58.3033 3.14366 61.0387 1.32409 64.132 0.503147C67.2252 -0.317794 70.503 -0.0941341 73.456 1.13938C76.409 2.37289 78.872 4.54718 80.4622 7.32444L96 34.5067V14.5244C96.0038 11.3241 97.0644 8.21467 99.0172 5.67917C100.97 3.14366 103.705 1.32409 106.799 0.503147C109.892 -0.317794 113.17 -0.0941341 116.123 1.13938C119.076 2.37289 121.539 4.54718 123.129 7.32444L138.667 34.5067V0H147.556L149.333 1.77778L151.111 0H160V60.1422C159.996 63.3425 158.936 66.452 156.983 68.9875C155.03 71.523 152.295 73.3426 149.201 74.1635C146.108 74.9845 142.83 74.7608 139.877 73.5273C136.924 72.2938 134.461 70.1195 132.871 67.3422L117.333 40.16V60.1422C117.33 63.3425 116.269 66.452 114.316 68.9875C112.363 71.523 109.628 73.3426 106.535 74.1635C103.441 74.9845 100.164 74.7608 97.2107 73.5273C94.2576 72.2938 91.7947 70.1195 90.2044 67.3422L74.6667 40.16V60.1422C74.6667 63.9943 73.1364 67.6887 70.4126 70.4126C67.6887 73.1364 63.9943 74.6667 60.1422 74.6667H37.3333C27.4319 74.6667 17.936 70.7333 10.9347 63.732C3.93332 56.7306 0 47.2347 0 37.3333C0 27.4319 3.93332 17.936 10.9347 10.9347C17.936 3.93332 27.4319 0 37.3333 0H49.7778V8.88889L48 10.6667L49.7778 12.4444V21.3333Z" fill="#1F2024"/>
<path d="M49.7778 10.6667H37.3334C30.2609 10.6667 23.4781 13.4762 18.4772 18.4772C13.4762 23.4781 10.6667 30.2609 10.6667 37.3333C10.6667 44.4058 13.4762 51.1885 18.4772 56.1895C23.4781 61.1905 30.2609 64 37.3334 64H60.1422C60.6489 64 61.1505 63.9002 61.6186 63.7063C62.0866 63.5125 62.5119 63.2283 62.8701 62.8701C63.2283 62.5118 63.5125 62.0866 63.7064 61.6185C63.9002 61.1505 64 60.6488 64 60.1422V14.5244C64.0015 13.6756 64.2829 12.8509 64.8006 12.1782C65.3184 11.5054 66.0436 11.0223 66.8638 10.8036C67.684 10.5848 68.5535 10.6428 69.3374 10.9683C70.1214 11.2939 70.7761 11.869 71.2 12.6044L99.4667 62.0622C99.8906 62.7977 100.545 63.3727 101.329 63.6983C102.113 64.0239 102.983 64.0818 103.803 63.8631C104.623 63.6444 105.348 63.1612 105.866 62.4885C106.384 61.8158 106.665 60.9911 106.667 60.1422V14.5244C106.668 13.6756 106.95 12.8509 107.467 12.1782C107.985 11.5054 108.71 11.0223 109.53 10.8036C110.351 10.5848 111.22 10.6428 112.004 10.9683C112.788 11.2939 113.443 11.869 113.867 12.6044L142.133 62.0622C142.557 62.7977 143.212 63.3727 143.996 63.6983C144.78 64.0239 145.649 64.0818 146.47 63.8631C147.29 63.6444 148.015 63.1612 148.533 62.4885C149.05 61.8158 149.332 60.9911 149.333 60.1422V0" stroke="white" stroke-width="8"/>
</g>
<defs>
<clipPath id="clip0_329_16179">
<rect width="160" height="74.6667" fill="white"/>
</clipPath>
</defs>
</svg>
