<svg width="355" height="233" viewBox="0 0 355 233" fill="none" xmlns="http://www.w3.org/2000/svg">
<g clip-path="url(#clip0_577_20411)">
<path d="M55.8737 106.579C42.1531 125.826 32.2694 146.04 26.6538 166.342C24.086 175.568 22.4098 185.621 26.9481 193.316C31.1454 200.398 40.9799 202.974 51.8082 201.542C63.4676 199.988 74.9604 195.142 85.6078 189.795C98.2138 183.247 110.13 175.7 121.109 167.31C142.668 151.004 162.704 133.481 180.962 114.965C191.301 104.609 201.114 93.9939 210.401 83.1188C214.994 78.0985 219.164 72.893 222.875 67.5481C225.875 62.7932 228.092 57.2615 224.526 53.5316C223.991 52.9824 222.644 53.3494 221.877 53.6812C207.891 59.5394 195.801 68.2296 185.226 77.8183C175.376 86.8419 166.344 96.3451 158.227 106.224C150.124 116.038 142.889 126.168 136.59 136.52C130.05 146.807 124.707 157.349 120.64 167.99C117.434 177.165 117.279 187.486 127.162 191.675C137.87 196.263 154.122 187.24 164.435 181.136C177.306 173.538 188.529 164.184 199.346 154.81C210.72 144.97 221.693 135.012 232.544 124.917C257.132 101.997 280.711 78.5035 304.207 54.9658C305.208 53.972 305.786 52.54 304.008 52.5033C302.229 52.4667 299.825 54.2273 298.571 55.3567C278.899 74.9622 259.287 94.6059 238.951 113.936C228.965 123.455 218.83 132.878 208.496 142.195C198.519 151.406 188.043 160.301 177.113 168.842C171.811 172.928 166.132 176.684 160.155 180.057C154.773 183.044 148.385 186.478 142.179 187.465C129.898 189.542 124.899 180.089 125.962 171.97C126.819 167.095 128.498 162.176 130.956 157.346C133.293 152.319 135.825 147.338 138.552 142.403C143.998 132.684 150.28 123.133 157.348 113.828C165.345 103.303 174.352 93.1425 184.267 83.46C194.395 73.5369 206.05 63.8955 220.218 57.9462L217.568 58.0958C220.634 61.309 218.617 65.9886 215.878 70.0392C212.651 74.4924 209.115 78.8455 205.291 83.0732C197.595 92.1405 189.505 101.035 181.02 109.758C164.312 127.026 146.158 143.516 126.73 159.072C116.929 167.042 106.39 174.421 95.253 181.108C85.1571 187.044 73.9798 192.656 62.5269 195.46C52.4461 197.902 41.9355 197.805 36.0543 192.092C29.7665 185.981 30.3344 176.181 32.2759 167.575C37.3235 146.381 47.3386 125.18 61.7885 105.1C62.6446 103.914 61.8659 103.308 60.3287 103.644C59.4185 103.894 58.5419 104.289 57.7596 104.801C56.9774 105.314 56.3081 105.931 55.7983 106.61L55.8737 106.579Z" fill="#F46036"/>
<path d="M273.656 69.8353C289.842 58.2475 305.958 46.5947 322.192 35.0662L317.889 34.7347C308.035 49.4931 299.031 64.4975 290.742 79.6316C290.049 80.8912 291.936 80.7103 292.896 80.4718C293.765 80.2022 294.594 79.8011 295.331 79.2945C296.067 78.788 296.695 78.1872 297.173 77.5311C305.745 62.6572 315.061 47.8224 324.421 33.095C326.162 30.3668 321.713 31.6038 320.118 32.7635C304.038 44.4488 287.821 56.0175 271.67 67.6378C270.733 68.3066 268.493 69.984 269.361 70.9141C270.229 71.8443 272.826 70.444 273.712 69.812L273.656 69.8353Z" fill="#F46036"/>
</g>
<defs>
<clipPath id="clip0_577_20411">
<rect width="337" height="113" fill="white" transform="translate(0 128.414) rotate(-22.3987)"/>
</clipPath>
</defs>
</svg>
