<svg width="151" height="61" viewBox="0 0 151 61" fill="none" xmlns="http://www.w3.org/2000/svg">
<g clip-path="url(#clip0_329_16194)">
<path d="M20.3236 13.4519C9.75074 13.4519 0.940376 17.9254 0.940376 31.4216C0.940376 42.1135 6.86471 48.8467 20.5966 48.8467C36.7597 48.8467 37.7958 38.2283 37.7958 38.2283H29.964C29.964 38.2283 28.2848 43.9459 20.1188 43.9459C13.4679 43.9459 8.68425 39.4651 8.68425 33.1846H38.6148V29.2434C38.6148 23.03 34.6598 13.4519 20.3236 13.4519ZM20.0506 18.4889C26.3816 18.4889 30.6977 22.3569 30.6977 28.1544H8.85747C8.85747 21.9997 14.4911 18.4889 20.0506 18.4889Z" fill="#1F2024"/>
<path d="M38.6093 0.383057V42.069C38.6093 44.4352 38.4399 47.7576 38.4399 47.7576H45.9098C45.9098 47.7576 46.1779 45.3714 46.1779 43.1906C46.1779 43.1906 49.8685 48.9488 59.9035 48.9488C70.4708 48.9488 77.6487 41.6321 77.6487 31.1493C77.6487 21.3974 71.0556 13.554 59.9206 13.554C49.4935 13.554 46.2534 19.1695 46.2534 19.1695V0.383057H38.6093ZM57.9925 18.7101C65.1685 18.7101 69.7316 24.0216 69.7316 31.1493C69.7316 38.7925 64.4614 43.7927 58.0437 43.7927C50.3848 43.7927 46.2534 37.8288 46.2534 31.2174C46.2534 25.0568 49.9606 18.7101 57.9925 18.7101Z" fill="#1F2024"/>
<path d="M96.2129 13.4519C80.3068 13.4519 79.2867 22.1378 79.2867 23.5258H87.2038C87.2038 23.5258 87.619 18.4548 95.6669 18.4548C100.897 18.4548 104.949 20.8421 104.949 25.4317V27.0653H95.6669C83.3443 27.0653 76.8297 30.6604 76.8297 37.956C76.8297 45.1359 82.8489 49.0424 90.9832 49.0424C102.069 49.0424 105.64 42.9334 105.64 42.9334C105.64 45.3632 105.828 47.7576 105.828 47.7576H112.866C112.866 47.7576 112.593 44.7897 112.593 42.8909V26.4782C112.593 15.7167 103.889 13.4519 96.2129 13.4519ZM104.949 31.9661V34.1443C104.949 36.9851 103.191 44.048 92.843 44.048C87.1764 44.048 84.7468 41.2275 84.7468 37.956C84.7468 32.0044 92.9287 31.9661 104.949 31.9661Z" fill="#1F2024"/>
<path d="M108.33 14.8147H117.237L130.019 40.3544L142.772 14.8147H150.84L127.611 60.2834H119.148L125.851 47.6084L108.33 14.8147Z" fill="#1F2024"/>
</g>
<defs>
<clipPath id="clip0_329_16194">
<rect width="150" height="60" fill="white" transform="translate(0.890381 0.333252)"/>
</clipPath>
</defs>
</svg>
