<svg width="40" height="40" viewBox="0 0 40 40" fill="none" xmlns="http://www.w3.org/2000/svg">
<path d="M22.1668 13.5167L24.3668 17.9167C24.6668 18.5167 25.4668 19.1167 26.1335 19.2167L30.1168 19.8834C32.6668 20.3167 33.2668 22.15 31.4335 23.9834L28.3334 27.1C27.8168 27.6167 27.5168 28.6334 27.6835 29.3667L28.5668 33.2167C29.2668 36.25 27.6501 37.4334 24.9668 35.85L21.2334 33.6334C20.5501 33.2334 19.4501 33.2334 18.7668 33.6334L15.0168 35.8334C12.3335 37.4167 10.7168 36.2334 11.4168 33.2L12.3001 29.35C12.4668 28.6334 12.1668 27.6167 11.6501 27.0834L8.56678 24C6.73345 22.1667 7.33345 20.3167 9.88345 19.9L13.8668 19.2334C14.5335 19.1167 15.3335 18.5334 15.6335 17.9334L17.8335 13.5334C19.0168 11.1334 20.9835 11.1334 22.1668 13.5167Z" fill="white"/>
<path d="M10 16.25C9.31667 16.25 8.75 15.6833 8.75 15V3.33331C8.75 2.64998 9.31667 2.08331 10 2.08331C10.6833 2.08331 11.25 2.64998 11.25 3.33331V15C11.25 15.6833 10.6833 16.25 10 16.25Z" fill="white"/>
<path d="M30 16.25C29.3167 16.25 28.75 15.6833 28.75 15V3.33331C28.75 2.64998 29.3167 2.08331 30 2.08331C30.6833 2.08331 31.25 2.64998 31.25 3.33331V15C31.25 15.6833 30.6833 16.25 30 16.25Z" fill="white"/>
<path d="M20 7.91665C19.3167 7.91665 18.75 7.34998 18.75 6.66665V3.33331C18.75 2.64998 19.3167 2.08331 20 2.08331C20.6833 2.08331 21.25 2.64998 21.25 3.33331V6.66665C21.25 7.34998 20.6833 7.91665 20 7.91665Z" fill="white"/>
</svg>
