<svg width="41" height="40" viewBox="0 0 41 40" fill="none" xmlns="http://www.w3.org/2000/svg">
<path d="M28.9377 36.6667H12.271C11.5877 36.6667 11.021 36.1 11.021 35.4167C11.021 34.7334 11.5877 34.1667 12.271 34.1667H28.9377C29.621 34.1667 30.1877 34.7334 30.1877 35.4167C30.1877 36.1 29.621 36.6667 28.9377 36.6667Z" fill="white"/>
<path d="M34.521 9.20002L27.8544 13.9667C26.971 14.6 25.7044 14.2167 25.321 13.2L22.171 4.80002C21.6377 3.35002 19.5877 3.35002 19.0544 4.80002L15.8877 13.1834C15.5044 14.2167 14.2544 14.6 13.371 13.95L6.70437 9.18336C5.37104 8.25002 3.60437 9.56669 4.15437 11.1167L11.0877 30.5334C11.321 31.2 11.9544 31.6334 12.6544 31.6334H28.5377C29.2377 31.6334 29.871 31.1834 30.1044 30.5334L37.0377 11.1167C37.6044 9.56669 35.8377 8.25002 34.521 9.20002ZM24.771 24.5834H16.4377C15.7544 24.5834 15.1877 24.0167 15.1877 23.3334C15.1877 22.65 15.7544 22.0834 16.4377 22.0834H24.771C25.4544 22.0834 26.021 22.65 26.021 23.3334C26.021 24.0167 25.4544 24.5834 24.771 24.5834Z" fill="white"/>
</svg>
