<svg width="41" height="40" viewBox="0 0 41 40" fill="none" xmlns="http://www.w3.org/2000/svg">
<path d="M11.6168 23.3335H7.16683C5.3335 23.3335 3.8335 24.8335 3.8335 26.6668V35.0002C3.8335 35.9168 4.5835 36.6668 5.50016 36.6668H11.6168C12.5335 36.6668 13.2835 35.9168 13.2835 35.0002V25.0002C13.2835 24.0835 12.5335 23.3335 11.6168 23.3335Z" fill="white"/>
<path d="M22.7164 16.6665H18.2664C16.4331 16.6665 14.9331 18.1665 14.9331 19.9998V34.9998C14.9331 35.9165 15.6831 36.6665 16.5998 36.6665H24.3831C25.2998 36.6665 26.0498 35.9165 26.0498 34.9998V19.9998C26.0498 18.1665 24.5664 16.6665 22.7164 16.6665Z" fill="white"/>
<path d="M33.8335 28.3333H29.3835C28.4668 28.3333 27.7168 29.0833 27.7168 29.9999V34.9999C27.7168 35.9166 28.4668 36.6666 29.3835 36.6666H35.5001C36.4168 36.6666 37.1668 35.9166 37.1668 34.9999V31.6666C37.1668 29.8333 35.6668 28.3333 33.8335 28.3333Z" fill="white"/>
<path d="M25.5167 8.08346C26.0334 7.5668 26.2334 6.95013 26.0667 6.4168C25.9001 5.88346 25.3834 5.50013 24.6501 5.38346L23.0501 5.1168C22.9834 5.1168 22.8334 5.00013 22.8001 4.93346L21.9167 3.1668C21.2501 1.8168 19.7334 1.8168 19.0667 3.1668L18.1834 4.93346C18.1667 5.00013 18.0167 5.1168 17.9501 5.1168L16.3501 5.38346C15.6167 5.50013 15.1167 5.88346 14.9334 6.4168C14.7667 6.95013 14.9667 7.5668 15.4834 8.08346L16.7167 9.33346C16.7834 9.38346 16.8334 9.58346 16.8167 9.65013L16.4667 11.1835C16.2001 12.3335 16.6334 12.8501 16.9167 13.0501C17.2001 13.2501 17.8167 13.5168 18.8334 12.9168L20.3334 12.0335C20.4001 11.9835 20.6167 11.9835 20.6834 12.0335L22.1667 12.9168C22.6334 13.2001 23.0167 13.2835 23.3167 13.2835C23.6667 13.2835 23.9167 13.1501 24.0667 13.0501C24.3501 12.8501 24.7834 12.3335 24.5167 11.1835L24.1667 9.65013C24.1501 9.5668 24.2001 9.38346 24.2667 9.33346L25.5167 8.08346Z" fill="white"/>
</svg>
