<svg width="161" height="41" viewBox="0 0 161 41" fill="none" xmlns="http://www.w3.org/2000/svg">
<g clip-path="url(#clip0_329_16199)">
<path d="M91.592 13.3715C91.592 8.70347 91.6728 4.3574 91.9151 0.333252L79.5577 2.66726V3.79402L80.7692 3.95498C81.6577 4.03547 82.223 4.3574 82.5461 4.84029C82.8692 5.40367 83.1115 6.2085 83.273 7.41575C83.4345 9.74975 83.5961 15.0616 83.5153 23.4318C83.5153 31.7216 83.4345 36.953 83.273 38.965C87.7152 39.9308 91.1882 40.3333 93.7728 40.3333C98.6188 40.3333 102.415 38.965 105.161 36.1481C107.907 33.4117 109.361 29.5485 109.361 24.8001C109.361 21.0174 108.311 17.8785 106.211 15.3836C104.111 12.8886 101.446 11.6813 98.2957 11.6813C96.1958 11.6813 94.0151 12.2447 91.592 13.3715ZM91.8343 38.1602C91.6728 35.5848 91.5113 27.8584 91.5113 15.2226C92.2382 14.9811 93.2074 14.8202 94.4189 14.8202C96.3573 14.8202 97.8919 15.786 99.0226 17.798C100.153 19.8101 100.719 22.2246 100.719 25.2829C100.719 29.0656 100.073 32.124 98.7803 34.6994C97.4881 37.1944 95.8727 38.4821 93.8535 38.4821C93.2074 38.3212 92.5612 38.2407 91.8343 38.1602ZM33.1973 1.13808H0.890381V2.74774L2.58649 2.9087C3.87877 3.15015 4.76721 3.63305 5.33258 4.3574C5.89795 5.16223 6.22102 6.44995 6.30179 8.22058C6.94793 16.9127 6.94793 25.0415 6.30179 32.5264C6.14025 34.297 5.81719 35.5848 5.33258 36.3896C4.76721 37.1944 3.87877 37.6773 2.58649 37.8383L0.890381 38.0797V39.6894H21.7283V38.0797L19.5476 37.9188C18.2553 37.7578 17.3669 37.1944 16.8015 36.4701C16.2362 35.6652 15.9131 34.3775 15.8323 32.6069C15.59 29.3876 15.4285 25.6854 15.4285 21.5807L19.7899 21.6612C22.1322 21.7417 23.7475 23.5123 24.5552 27.0536H26.1705V13.9349H24.5552C23.7475 17.3956 22.2129 19.1662 19.7899 19.2467L15.4285 19.3272C15.4285 12.0838 15.59 6.93285 15.8323 3.79402H22.2129C26.7359 3.79402 29.8051 6.6914 31.5819 12.4862L33.5204 11.9228L33.1973 1.13808ZM29.4012 25.9268C29.4012 30.1119 30.6127 33.5727 32.955 36.3091C35.2972 39.0455 38.7702 40.3333 43.1317 40.3333C47.4931 40.3333 51.0469 38.965 53.6314 36.1481C56.216 33.4117 57.4275 29.951 57.4275 25.7658C57.4275 21.5807 56.216 18.12 53.8737 15.3836C51.5315 12.6471 48.0585 11.3594 43.697 11.3594C39.3356 11.3594 35.7818 12.7276 33.1973 15.5445C30.6127 18.2809 29.4012 21.7417 29.4012 25.9268ZM47.4123 16.7518C48.3815 19.0858 48.7854 22.1441 48.7854 25.8463C48.7854 34.3775 47.0085 38.5626 43.5355 38.5626C41.7586 38.5626 40.3856 37.3554 39.4164 34.9409C38.4472 32.5264 38.0433 29.4681 38.0433 25.8463C38.0433 17.3956 39.8202 13.2105 43.2932 13.2105C45.0701 13.13 46.4431 14.3373 47.4123 16.7518ZM115.661 36.3091C118.326 38.965 121.718 40.3333 125.757 40.3333C128.26 40.3333 130.441 39.8504 132.38 38.8041C134.318 37.8383 135.853 36.631 136.902 35.1823L136.095 34.2165C134.318 35.5848 132.299 36.2286 129.957 36.2286C126.726 36.2286 124.222 35.1823 122.526 33.0093C120.749 30.8363 119.941 28.0999 120.103 24.5586H137.387C137.387 20.6954 136.418 17.5566 134.399 15.0616C132.38 12.6471 129.553 11.4399 125.918 11.4399C121.395 11.4399 117.922 12.8886 115.418 15.7055C112.915 18.5224 111.703 21.9832 111.703 26.0878C111.703 30.2729 112.995 33.6532 115.661 36.3091ZM121.637 16.1079C122.526 14.1763 123.657 13.2105 125.191 13.2105C127.614 13.2105 128.826 16.2689 128.826 22.466L120.264 22.627C120.345 20.2125 120.749 18.0395 121.637 16.1079ZM159.113 12.8886C156.933 11.9228 154.187 11.3594 150.875 11.3594C147.483 11.3594 144.818 12.2447 142.798 13.9349C140.779 15.625 139.729 17.7176 139.729 20.2125C139.729 22.3856 140.375 24.0757 141.587 25.2829C142.798 26.4902 144.737 27.5365 147.241 28.4218C149.502 29.2266 151.118 30.0314 151.925 30.7558C152.733 31.5606 153.217 32.4459 153.217 33.6532C153.217 34.7799 152.814 35.8262 151.925 36.631C151.118 37.5163 149.987 37.9188 148.533 37.9188C144.979 37.9188 142.314 35.3433 140.456 30.1924L139.083 30.5948L139.406 38.6431C142.314 39.7699 145.545 40.3333 149.098 40.3333C152.814 40.3333 155.641 39.5284 157.74 37.8383C159.84 36.2286 160.89 33.8946 160.89 30.9972C160.89 29.0656 160.406 27.456 159.356 26.2487C158.306 25.0415 156.61 23.9952 154.187 23.0294C151.521 22.0636 149.664 21.1783 148.695 20.3735C147.725 19.5687 147.241 18.6029 147.241 17.3956C147.241 16.1884 147.564 15.2226 148.291 14.4178C149.018 13.6129 149.906 13.291 151.037 13.291C154.267 13.291 156.61 15.625 158.064 20.2125L159.437 19.8101L159.113 12.8886ZM81.4154 12.1642C80.2846 11.6009 79.0731 11.3594 77.7001 11.3594C76.327 11.3594 74.954 11.9228 73.4194 13.0495C71.8848 14.1763 70.7541 15.7055 69.8656 17.798L69.9464 11.3594L57.6698 13.7739V14.9007L58.8813 14.9811C60.4159 15.1421 61.3043 16.3493 61.4658 18.5224C61.9504 23.5123 61.9504 28.8242 61.4658 34.458C61.3043 36.631 60.4159 37.7578 58.8813 37.9992L57.6698 38.1602V39.6894H74.7924V38.1602L72.6117 37.9992C71.0772 37.8383 70.1887 36.631 70.0272 34.458C69.5426 29.79 69.4618 24.8001 69.8656 19.6491C70.3503 18.8443 71.4002 18.3614 73.0156 18.2005C74.6309 18.0395 76.4886 18.5224 78.427 19.6491L81.4154 12.1642Z" fill="#1F2024"/>
</g>
<defs>
<clipPath id="clip0_329_16199">
<rect width="160" height="40" fill="white" transform="translate(0.890381 0.333252)"/>
</clipPath>
</defs>
</svg>
