<svg width="173" height="31" viewBox="0 0 173 31" fill="none" xmlns="http://www.w3.org/2000/svg">
<path d="M21.664 2.88L14.176 24H7.712L0.192 2.88H5.984L9.856 15.648L11.008 19.808L12.128 15.712L16.064 2.88H21.664ZM26.5158 6.144C25.4064 6.144 24.5958 5.94133 24.0838 5.536C23.5931 5.10933 23.3478 4.448 23.3478 3.552C23.3478 2.63467 23.5931 1.97333 24.0838 1.568C24.5958 1.14133 25.4064 0.927999 26.5158 0.927999C27.6038 0.927999 28.4038 1.14133 28.9158 1.568C29.4278 1.97333 29.6838 2.63467 29.6838 3.552C29.6838 4.448 29.4278 5.10933 28.9158 5.536C28.4038 5.94133 27.6038 6.144 26.5158 6.144ZM29.2358 8V24H23.7958V8H29.2358ZM33.1083 24V8H37.9083L38.1323 11.456C38.5376 10.2613 39.1349 9.33333 39.9243 8.672C40.7349 8.01067 41.7589 7.68 42.9963 7.68C43.4016 7.68 43.7429 7.712 44.0203 7.776C44.3189 7.84 44.5536 7.92533 44.7243 8.032L44.1803 12.512C43.9669 12.4267 43.6896 12.3627 43.3483 12.32C43.0283 12.256 42.6336 12.224 42.1643 12.224C41.5243 12.224 40.9269 12.3627 40.3723 12.64C39.8176 12.9173 39.3696 13.3333 39.0283 13.888C38.7083 14.4213 38.5483 15.104 38.5483 15.936V24H33.1083ZM53.14 2.912V18.304C53.14 19.072 53.3213 19.6267 53.684 19.968C54.068 20.288 54.5907 20.448 55.252 20.448C55.764 20.448 56.2013 20.3947 56.564 20.288C56.948 20.16 57.2893 19.9787 57.588 19.744L58.164 23.104C57.6307 23.488 56.9587 23.7867 56.148 24C55.3373 24.2133 54.5053 24.32 53.652 24.32C52.436 24.32 51.38 24.1493 50.484 23.808C49.6093 23.4667 48.9267 22.9227 48.436 22.176C47.9667 21.4293 47.7213 20.4373 47.7 19.2V4.416L53.14 2.912ZM57.908 8V11.872H44.948V8H57.908ZM65.8288 24.32C64.7408 24.32 63.7808 24.1387 62.9488 23.776C62.1381 23.392 61.4981 22.784 61.0288 21.952C60.5594 21.12 60.3248 20.032 60.3248 18.688V8H65.7648V17.408C65.7648 18.432 65.9674 19.1467 66.3728 19.552C66.7781 19.9573 67.3541 20.16 68.1008 20.16C68.4848 20.16 68.8474 20.096 69.1888 19.968C69.5301 19.8187 69.8288 19.6053 70.0848 19.328C70.3408 19.0293 70.5328 18.656 70.6608 18.208C70.8101 17.7387 70.8848 17.1947 70.8848 16.576V8H76.3248V24H71.4608L71.3008 20.992C70.7888 22.1227 70.0741 22.9653 69.1568 23.52C68.2394 24.0533 67.1301 24.32 65.8288 24.32ZM89.1613 13.856C89.1613 13.1093 88.9479 12.5227 88.5213 12.096C88.1159 11.648 87.5613 11.424 86.8573 11.424C86.1533 11.424 85.5453 11.6053 85.0333 11.968C84.5426 12.3093 84.2013 12.928 84.0093 13.824L79.4013 12.736C79.6999 11.2 80.4893 9.97333 81.7693 9.056C83.0493 8.13867 84.8519 7.68 87.1773 7.68C88.7346 7.68 90.0573 7.91467 91.1453 8.384C92.2546 8.832 93.0973 9.51467 93.6733 10.432C94.2706 11.328 94.5693 12.4373 94.5693 13.76V19.616C94.5693 20.448 94.9426 20.864 95.6893 20.864C96.0733 20.864 96.3826 20.8213 96.6173 20.736L96.2973 23.84C95.6573 24.1387 94.8786 24.288 93.9613 24.288C93.1293 24.288 92.3933 24.16 91.7533 23.904C91.1133 23.6267 90.6119 23.2213 90.2493 22.688C89.8866 22.1333 89.7053 21.44 89.7053 20.608V20.416L90.3133 20.192C90.3133 21.1093 90.0359 21.8773 89.4813 22.496C88.9479 23.1147 88.2439 23.5733 87.3693 23.872C86.5159 24.1707 85.6199 24.32 84.6813 24.32C83.5933 24.32 82.6439 24.1493 81.8333 23.808C81.0226 23.4667 80.3933 22.976 79.9453 22.336C79.5186 21.6747 79.3053 20.864 79.3053 19.904C79.3053 18.752 79.6466 17.8027 80.3293 17.056C81.0333 16.288 82.1319 15.7547 83.6253 15.456L89.6733 14.208L89.6413 17.088L86.5693 17.728C85.9293 17.856 85.4493 18.048 85.1293 18.304C84.8306 18.5387 84.6813 18.9013 84.6813 19.392C84.6813 19.8613 84.8519 20.2133 85.1933 20.448C85.5346 20.6827 85.9399 20.8 86.4093 20.8C86.7719 20.8 87.1133 20.7467 87.4333 20.64C87.7746 20.5333 88.0733 20.3733 88.3293 20.16C88.5853 19.9253 88.7879 19.6373 88.9373 19.296C89.0866 18.9547 89.1613 18.5493 89.1613 18.08V13.856ZM104.141 1.216V18.56C104.141 19.264 104.258 19.7653 104.493 20.064C104.727 20.3627 105.122 20.512 105.677 20.512C105.997 20.512 106.263 20.4907 106.477 20.448C106.69 20.4053 106.946 20.3413 107.245 20.256L106.893 23.52C106.509 23.7547 106.007 23.9467 105.389 24.096C104.77 24.2453 104.162 24.32 103.565 24.32C101.858 24.32 100.621 23.9253 99.8525 23.136C99.0845 22.3467 98.7005 21.056 98.7005 19.264V1.216H104.141Z" fill="white"/>
<path d="M128.032 2.88C129.76 2.88 131.232 3.15733 132.448 3.712C133.664 4.26667 134.592 5.06667 135.232 6.112C135.872 7.15733 136.192 8.42667 136.192 9.92C136.192 11.4133 135.872 12.6827 135.232 13.728C134.592 14.7733 133.664 15.5733 132.448 16.128C131.232 16.6827 129.76 16.96 128.032 16.96H123.84V24H118.336V2.88H128.032ZM127.168 12.832C128.32 12.832 129.184 12.5973 129.76 12.128C130.357 11.6373 130.656 10.9013 130.656 9.92C130.656 8.93867 130.357 8.21333 129.76 7.744C129.184 7.25333 128.32 7.008 127.168 7.008H123.84V12.832H127.168ZM148.255 13.856C148.255 13.1093 148.042 12.5227 147.615 12.096C147.21 11.648 146.655 11.424 145.951 11.424C145.247 11.424 144.639 11.6053 144.127 11.968C143.636 12.3093 143.295 12.928 143.103 13.824L138.495 12.736C138.794 11.2 139.583 9.97333 140.863 9.056C142.143 8.13867 143.946 7.68 146.271 7.68C147.828 7.68 149.151 7.91467 150.239 8.384C151.348 8.832 152.191 9.51467 152.767 10.432C153.364 11.328 153.663 12.4373 153.663 13.76V19.616C153.663 20.448 154.036 20.864 154.783 20.864C155.167 20.864 155.476 20.8213 155.711 20.736L155.391 23.84C154.751 24.1387 153.972 24.288 153.055 24.288C152.223 24.288 151.487 24.16 150.847 23.904C150.207 23.6267 149.706 23.2213 149.343 22.688C148.98 22.1333 148.799 21.44 148.799 20.608V20.416L149.407 20.192C149.407 21.1093 149.13 21.8773 148.575 22.496C148.042 23.1147 147.338 23.5733 146.463 23.872C145.61 24.1707 144.714 24.32 143.775 24.32C142.687 24.32 141.738 24.1493 140.927 23.808C140.116 23.4667 139.487 22.976 139.039 22.336C138.612 21.6747 138.399 20.864 138.399 19.904C138.399 18.752 138.74 17.8027 139.423 17.056C140.127 16.288 141.226 15.7547 142.719 15.456L148.767 14.208L148.735 17.088L145.663 17.728C145.023 17.856 144.543 18.048 144.223 18.304C143.924 18.5387 143.775 18.9013 143.775 19.392C143.775 19.8613 143.946 20.2133 144.287 20.448C144.628 20.6827 145.034 20.8 145.503 20.8C145.866 20.8 146.207 20.7467 146.527 20.64C146.868 20.5333 147.167 20.3733 147.423 20.16C147.679 19.9253 147.882 19.6373 148.031 19.296C148.18 18.9547 148.255 18.5493 148.255 18.08V13.856ZM172.923 8L167.099 24C166.502 25.6853 165.851 27.0293 165.147 28.032C164.443 29.0347 163.611 29.76 162.651 30.208C161.691 30.656 160.539 30.88 159.195 30.88C158.299 30.88 157.478 30.784 156.731 30.592C155.984 30.4 155.334 30.1333 154.779 29.792L155.867 26.112C156.251 26.3893 156.656 26.5813 157.083 26.688C157.51 26.816 158.054 26.88 158.715 26.88C159.334 26.88 159.835 26.7733 160.219 26.56C160.624 26.3467 160.944 25.9413 161.179 25.344L161.595 24.352L159.739 20L154.939 8H160.923L163.387 17.12L164.155 20.512L165.051 16.992L167.515 8H172.923Z" fill="#F46036"/>
</svg>
