<svg width="40" height="40" viewBox="0 0 40 40" fill="none" xmlns="http://www.w3.org/2000/svg">
<path d="M28.6333 8.75C25.7833 8.75 22.3833 9.83333 22.3833 15V25C22.3833 30.1667 25.7833 31.25 28.6333 31.25C31.4833 31.25 34.8833 30.1667 34.8833 25V15C34.8833 9.83333 31.4833 8.75 28.6333 8.75Z" fill="white"/>
<path d="M11.3667 8.75C8.5167 8.75 5.1167 9.83333 5.1167 15V25C5.1167 30.1667 8.5167 31.25 11.3667 31.25C14.2167 31.25 17.6167 30.1667 17.6167 25V15C17.6167 9.83333 14.2167 8.75 11.3667 8.75Z" fill="white"/>
<path d="M22.3834 18.75H17.6167V21.25H22.3834V18.75Z" fill="white"/>
<path d="M37.5 25.4166C36.8167 25.4166 36.25 24.8499 36.25 24.1666V15.8333C36.25 15.1499 36.8167 14.5833 37.5 14.5833C38.1833 14.5833 38.75 15.1499 38.75 15.8333V24.1666C38.75 24.8499 38.1833 25.4166 37.5 25.4166Z" fill="white"/>
<path d="M2.5 25.4166C1.81667 25.4166 1.25 24.8499 1.25 24.1666V15.8333C1.25 15.1499 1.81667 14.5833 2.5 14.5833C3.18333 14.5833 3.75 15.1499 3.75 15.8333V24.1666C3.75 24.8499 3.18333 25.4166 2.5 25.4166Z" fill="white"/>
</svg>
