<svg width="411" height="28" viewBox="0 0 411 28" fill="none" xmlns="http://www.w3.org/2000/svg">
<g clip-path="url(#clip0_577_20311)">
<path d="M9.71496 14.5688C25.6568 9.22597 44.1049 2.91402 72.113 1.60899C101.955 0.219975 123.556 6.69344 140.738 11.7908C157.92 16.8882 176.239 22.7673 201.715 25.9136C213.703 27.393 226.907 28.1683 240.29 27.968C255.431 27.7419 269.823 26.327 283.414 24.7184C314.419 21.0552 343.925 16.6298 371.572 11.5647C373.122 11.2804 372.734 10.8605 371.081 10.7054C369.117 10.5245 366.042 10.6796 364.389 10.9768C339.507 15.4669 313.204 19.4659 285.661 22.8513C272.381 24.4793 258.454 26.1784 243.494 26.4756C230.136 26.7405 216.959 25.6551 205.41 24.04C179.985 20.4738 163.036 14.3879 144.123 9.03862C134.873 6.41564 124.951 3.7862 112.859 1.97724C100.767 0.168291 86.9955 -0.374395 73.3273 0.239356C40.436 1.71236 19.3007 8.18583 0.413398 14.5172C-1.03351 14.9952 1.65361 15.2343 3.12635 15.2537C5.40007 15.286 8.31973 15.0405 9.71496 14.5753V14.5688Z" fill="#F46036"/>
<path d="M325.968 13.3797C339.016 11.9842 352.142 10.6339 365.345 9.33537C371.752 8.70224 378.186 8.08849 384.62 7.4812C387.953 7.17109 391.26 6.86099 394.593 6.55734C396.996 6.33768 399.011 6.09218 401.362 6.44105L400.639 5.76915C395.368 7.71378 388.134 9.19324 380.925 10.6662C373.716 12.1393 366.197 13.6704 359.066 15.2403C344.959 18.3414 331.523 21.7202 321.627 25.7452C320.361 26.2555 322.713 26.4881 324.418 26.5075C326.64 26.5333 329.921 26.3008 331.239 25.8033C341.755 21.8301 355.061 18.4447 369.401 15.3243C376.429 13.7996 383.638 12.3331 390.821 10.8601C398.004 9.38706 405.316 7.81069 410.586 5.83376C411.336 5.55596 410.948 5.31692 409.863 5.16186C403.61 4.25739 395.988 4.96159 389.813 5.53011C382.191 6.23431 374.569 6.95789 366.998 7.6944C351.832 9.1674 336.768 10.7115 321.808 12.3137C320.361 12.4687 317.571 12.9016 319.018 13.3668C320.465 13.8319 324.392 13.5606 325.968 13.3926V13.3797Z" fill="#F46036"/>
</g>
<defs>
<clipPath id="clip0_577_20311">
<rect width="411" height="28" fill="white"/>
</clipPath>
</defs>
</svg>
