<svg width="25" height="24" viewBox="0 0 25 24" fill="none" xmlns="http://www.w3.org/2000/svg">
<path d="M11.0647 3.69151C11.4422 2.52958 13.0861 2.52958 13.4636 3.69151L14.6752 7.42035C14.844 7.93998 15.3282 8.2918 15.8746 8.2918H19.7954C21.0171 8.2918 21.525 9.85516 20.5367 10.5733L17.3647 12.8778C16.9227 13.199 16.7377 13.7682 16.9066 14.2879L18.1181 18.0167C18.4957 19.1786 17.1658 20.1448 16.1774 19.4267L13.0055 17.1222C12.5634 16.801 11.9649 16.801 11.5229 17.1222L8.35092 19.4267C7.36253 20.1448 6.03265 19.1786 6.41018 18.0167L7.62175 14.2879C7.79059 13.7682 7.60563 13.199 7.16361 12.8778L3.99167 10.5733C3.00327 9.85516 3.51124 8.2918 4.73296 8.2918H8.6537C9.20007 8.2918 9.6843 7.93998 9.85314 7.42035L11.0647 3.69151Z" fill="#FFCE31"/>
</svg>
