<svg width="70" height="70" viewBox="0 0 70 70" fill="none" xmlns="http://www.w3.org/2000/svg">
<g clip-path="url(#clip0_631_183)">
<path d="M44.3863 54.9624L34.364 57.1107L29.5137 58.147C27.8055 58.5114 26.0357 58.7764 24.3653 59.2827C23.7596 59.4625 23.9915 60.0256 24.318 60.3805C24.7439 60.8443 25.4915 61.2228 26.1303 61.1329C27.8764 60.8916 29.6084 60.4184 31.3308 60.0493L36.1811 59.013L46.2082 56.8694C46.8564 56.7322 46.5583 56.0744 46.2507 55.7385C45.8391 55.2889 45.0204 54.8299 44.3816 54.9671L44.3863 54.9624Z" fill="#F46036"/>
<path d="M43.4913 40.761C33.1946 35.5464 22.9403 30.2324 12.582 25.136C12.2224 24.9562 11.3375 24.5351 11.0394 25.0414C10.7602 25.5288 11.5552 26.1534 11.8912 26.3285C22.1264 31.6614 32.4706 36.7909 42.7721 42.0008C43.1506 42.1901 44.0734 42.6302 44.381 42.0955C44.6743 41.5939 43.8462 40.9267 43.4913 40.7516L43.4913 40.761Z" fill="#F46036"/>
<path d="M53.945 33.4695L51.7588 23.5702L50.6847 18.701C50.3156 17.0258 50.0222 15.3034 49.5348 13.6614C49.3644 13.103 48.6546 12.6866 48.1436 12.5257C47.8786 12.4406 46.9369 12.2749 47.0174 12.838C47.2587 14.5463 47.7177 16.2356 48.0915 17.9155L49.1657 22.7847L51.385 32.8496C51.5837 33.7487 54.2384 34.7944 53.9497 33.4742L53.945 33.4695Z" fill="#F46036"/>
</g>
<defs>
<clipPath id="clip0_631_183">
<rect width="47.4867" height="51" fill="white" transform="translate(33.5781 69.6406) rotate(-135)"/>
</clipPath>
</defs>
</svg>
