<svg width="40" height="40" viewBox="0 0 40 40" fill="none" xmlns="http://www.w3.org/2000/svg">
<path d="M30 3.33337H10C7.23333 3.33337 5 5.55004 5 8.28337V26.4667C5 29.2 7.23333 31.4167 10 31.4167H11.2667C12.6 31.4167 13.8667 31.9334 14.8 32.8667L17.65 35.6834C18.95 36.9667 21.0667 36.9667 22.3667 35.6834L25.2167 32.8667C26.15 31.9334 27.4333 31.4167 28.75 31.4167H30C32.7667 31.4167 35 29.2 35 26.4667V8.28337C35 5.55004 32.7667 3.33337 30 3.33337ZM20 9.58337C22.15 9.58337 23.8833 11.3167 23.8833 13.4667C23.8833 15.6167 22.15 17.35 20 17.35C17.85 17.35 16.1167 15.6 16.1167 13.4667C16.1167 11.3167 17.85 9.58337 20 9.58337ZM24.4667 25.1H15.5333C14.1833 25.1 13.4 23.6 14.15 22.4834C15.2833 20.8 17.4833 19.6667 20 19.6667C22.5167 19.6667 24.7167 20.8 25.85 22.4834C26.6 23.6 25.8 25.1 24.4667 25.1Z" fill="white"/>
</svg>
