<svg width="123" height="31" viewBox="0 0 123 31" fill="none" xmlns="http://www.w3.org/2000/svg">
<path d="M32.7764 11.8623V9.95605H41.7568V11.8623H38.4092V20.8896H36.124V11.8623H32.7764Z" fill="#202020"/>
<path d="M46.9375 21.0503C46.0986 21.0503 45.375 20.8784 44.7656 20.5347C44.1563 20.1909 43.6875 19.7046 43.3594 19.0737C43.0332 18.4409 42.8711 17.6929 42.8711 16.8276C42.8711 15.9839 43.0332 15.2446 43.3594 14.6089C43.6875 13.9712 44.1494 13.4741 44.7461 13.1167C45.3418 12.7603 46.043 12.5815 46.8477 12.5815C47.5684 12.5815 48.2197 12.7358 48.8008 13.0425C49.3838 13.3472 49.8457 13.8101 50.1875 14.4292C50.5313 15.0464 50.7031 15.8188 50.7031 16.7456V17.3706H45.1172V17.3784C45.1172 17.9907 45.2832 18.4722 45.6172 18.8237C45.9531 19.1753 46.4063 19.3511 46.9766 19.3511C47.3564 19.3511 47.6846 19.272 47.9609 19.1128C48.2393 18.9517 48.4356 18.7144 48.5508 18.4019L50.6523 18.5425C50.4932 19.3032 50.0879 19.9116 49.4375 20.3667C48.7861 20.8228 47.9531 21.0503 46.9375 21.0503ZM45.1172 15.9604H48.5625C48.5566 15.4741 48.3994 15.0728 48.0898 14.7573C47.7793 14.4399 47.377 14.2808 46.8828 14.2808C46.377 14.2808 45.9629 14.4448 45.6406 14.7729C45.3174 15.0991 45.1426 15.4946 45.1172 15.9604Z" fill="#202020"/>
<path d="M59.0103 15.0269L56.9282 15.1558C56.8706 14.8931 56.7261 14.6675 56.4946 14.48C56.2651 14.2905 55.9526 14.1948 55.5571 14.1948C55.2056 14.1948 54.9067 14.269 54.6626 14.4175C54.4175 14.564 54.2974 14.7603 54.3032 15.0073C54.2974 15.2026 54.3745 15.3687 54.5337 15.5034C54.6919 15.6392 54.9614 15.7476 55.3423 15.8276L56.8267 16.1284C58.4048 16.4517 59.1948 17.1909 59.1978 18.3472C59.1978 18.8862 59.0396 19.3589 58.7251 19.7651C58.4097 20.1694 57.9771 20.4839 57.4282 20.7105C56.8814 20.937 56.2534 21.0503 55.5454 21.0503C54.4595 21.0503 53.5933 20.8237 52.9478 20.3706C52.3042 19.9155 51.9292 19.2964 51.8228 18.5151L54.061 18.3979C54.1313 18.7319 54.2954 18.9839 54.5532 19.1558C54.813 19.3257 55.145 19.4097 55.5493 19.4097C55.9497 19.4097 56.272 19.3315 56.5142 19.1753C56.7583 19.019 56.8823 18.8198 56.8853 18.5776C56.8745 18.1714 56.5239 17.8999 55.8345 17.7612L54.4126 17.48C52.8267 17.1626 52.0356 16.3813 52.0415 15.1362C52.0386 14.3452 52.355 13.7212 52.9907 13.2651C53.6255 12.8101 54.4683 12.5815 55.5181 12.5815C56.5542 12.5815 57.3706 12.8003 57.9673 13.2378C58.563 13.6753 58.9106 14.272 59.0103 15.0269Z" fill="#202020"/>
<path d="M64.9873 12.6897V14.3967H63.4443V18.3694C63.4443 18.6819 63.5146 18.8948 63.6553 19.0061C63.7979 19.1155 63.9844 19.1702 64.2139 19.1702C64.3203 19.1702 64.4268 19.1614 64.5342 19.1428C64.6406 19.1223 64.7227 19.1067 64.7803 19.0959L65.1357 20.7874C65.0234 20.8245 64.8633 20.8655 64.6553 20.9124C64.4492 20.9612 64.1992 20.9915 63.9053 21.0022C63.0771 21.0354 62.4131 20.8567 61.9131 20.4631C61.4131 20.0706 61.165 19.4709 61.1709 18.6663V14.3967H60.0498V12.6897H61.1709V10.7249H63.4443V12.6897H64.9873Z" fill="#202020"/>
<path d="M66.4629 20.8903V12.691H68.7402V20.8903H66.4629ZM67.4941 11.6324C67.1602 11.6324 66.873 11.5192 66.6309 11.2926C66.3887 11.066 66.2676 10.7955 66.2676 10.4801C66.2676 10.1627 66.3887 9.89221 66.6309 9.6676C66.873 9.44397 67.1602 9.33167 67.4941 9.33167C67.832 9.33167 68.123 9.44397 68.3652 9.6676C68.6074 9.89221 68.7285 10.1627 68.7285 10.4801C68.7285 10.7955 68.6074 11.066 68.3652 11.2926C68.123 11.5192 67.832 11.6324 67.4941 11.6324Z" fill="#202020"/>
<path d="M70.5532 20.8901V12.6909H72.7212V14.1362H72.8188C72.9907 13.6519 73.2759 13.272 73.6743 12.9956C74.0747 12.7202 74.5513 12.5815 75.104 12.5815C75.6665 12.5815 76.144 12.7222 76.5376 13.0034C76.9331 13.2827 77.1978 13.6597 77.3306 14.1362H77.4165C77.5825 13.6675 77.8862 13.2915 78.3267 13.0073C78.7661 12.7241 79.2876 12.5815 79.8892 12.5815C80.6519 12.5815 81.273 12.8257 81.7524 13.312C82.231 13.7964 82.4712 14.4839 82.4712 15.3745V20.8901H80.2017V15.8237C80.2017 15.3687 80.0806 15.0269 79.8384 14.8003C79.5962 14.5718 79.2935 14.4565 78.9321 14.4565C78.5181 14.4565 78.1948 14.5884 77.9634 14.8511C77.7339 15.1147 77.6196 15.4585 77.6196 15.8823V20.8901H75.4126V15.7769C75.4126 15.3735 75.2974 15.0532 75.0689 14.8159C74.8394 14.5767 74.5376 14.4565 74.1626 14.4565C73.7847 14.4565 73.4683 14.5952 73.2134 14.8706C72.9575 15.147 72.8306 15.5132 72.8306 15.9683V20.8901H70.5532Z" fill="#202020"/>
<path d="M87.9795 21.0505C87.1484 21.0505 86.4307 20.8738 85.8271 20.5193C85.2256 20.1658 84.7607 19.6707 84.4326 19.0349C84.1064 18.4001 83.9443 17.6619 83.9443 16.8201C83.9443 15.9744 84.1064 15.2332 84.4326 14.5974C84.7607 13.9626 85.2256 13.4675 85.8271 13.113C86.4307 12.7595 87.1484 12.5818 87.9795 12.5818C88.8076 12.5818 89.5234 12.7595 90.1279 13.113C90.7314 13.4675 91.1963 13.9626 91.5225 14.5974C91.8506 15.2332 92.0147 15.9744 92.0147 16.8201C92.0147 17.6619 91.8506 18.4001 91.5225 19.0349C91.1963 19.6707 90.7314 20.1658 90.1279 20.5193C89.5234 20.8738 88.8076 21.0505 87.9795 21.0505ZM87.9912 19.2888C88.5537 19.2888 88.9795 19.0544 89.2686 18.5857C89.5576 18.115 89.7022 17.5212 89.7022 16.8044C89.7022 16.0916 89.5576 15.4988 89.2686 15.0271C88.9795 14.5535 88.5537 14.3162 87.9912 14.3162C87.418 14.3162 86.9844 14.5535 86.6904 15.0271C86.3984 15.4988 86.2529 16.0916 86.2529 16.8044C86.2529 17.5212 86.3984 18.115 86.6904 18.5857C86.9844 19.0544 87.418 19.2888 87.9912 19.2888Z" fill="#202020"/>
<path d="M95.771 16.1482V20.8904H93.4937V12.6912H95.6616V14.1365H95.7593C95.9438 13.6599 96.2485 13.283 96.6733 13.0037C97.1001 12.7224 97.6167 12.5818 98.2241 12.5818C99.0776 12.5818 99.7632 12.8582 100.279 13.4099C100.796 13.9597 101.056 14.7126 101.056 15.6677V20.8904H98.7827V16.074C98.7847 15.572 98.6558 15.1794 98.396 14.8982C98.1353 14.615 97.7769 14.4724 97.3218 14.4724C96.8628 14.4724 96.4907 14.6199 96.2046 14.9138C95.9175 15.2087 95.773 15.6199 95.771 16.1482Z" fill="#202020"/>
<path d="M102.842 20.8898V12.6906H105.119V20.8898H102.842ZM103.873 11.632C103.539 11.632 103.252 11.5187 103.01 11.2921C102.768 11.0656 102.646 10.795 102.646 10.4796C102.646 10.1622 102.768 9.89172 103.01 9.66711C103.252 9.44348 103.539 9.33118 103.873 9.33118C104.211 9.33118 104.502 9.44348 104.744 9.66711C104.986 9.89172 105.107 10.1622 105.107 10.4796C105.107 10.795 104.986 11.0656 104.744 11.2921C104.502 11.5187 104.211 11.632 103.873 11.632Z" fill="#202020"/>
<path d="M109.268 21.0466C108.483 21.0466 107.834 20.8425 107.318 20.4334C106.803 20.0222 106.545 19.4119 106.545 18.6013C106.545 17.99 106.687 17.5095 106.975 17.1599C107.264 16.8113 107.643 16.5564 108.111 16.3943C108.58 16.2302 109.085 16.1238 109.627 16.074C110.338 16.0037 110.846 15.9294 111.15 15.8513C111.457 15.7732 111.611 15.6013 111.611 15.3357V15.3044C111.611 14.9666 111.504 14.7048 111.291 14.5193C111.08 14.3347 110.78 14.2419 110.393 14.2419C109.983 14.2419 109.658 14.3318 109.416 14.5115C109.174 14.6892 109.014 14.9138 108.936 15.1873L106.834 15.0154C106.99 14.2683 107.378 13.6755 107.998 13.238C108.62 12.8005 109.422 12.5818 110.404 12.5818C111.014 12.5818 111.582 12.6785 112.111 12.8708C112.643 13.0642 113.07 13.365 113.396 13.7732C113.722 14.1794 113.885 14.7087 113.885 15.3591V20.8904H111.729V19.7537H111.666C111.465 20.1345 111.166 20.4451 110.768 20.6873C110.371 20.9265 109.871 21.0466 109.268 21.0466ZM109.92 19.4763C110.417 19.4763 110.826 19.3318 111.146 19.0427C111.467 18.7517 111.627 18.3904 111.627 17.9607V17.0896C111.538 17.1501 111.4 17.2029 111.213 17.2498C111.025 17.2966 110.826 17.3376 110.615 17.3709C110.404 17.405 110.215 17.4334 110.049 17.4568C109.65 17.5144 109.328 17.6267 109.084 17.7927C108.839 17.9597 108.717 18.2029 108.717 18.5232C108.717 18.8386 108.83 19.0769 109.057 19.238C109.283 19.3972 109.57 19.4763 109.92 19.4763Z" fill="#202020"/>
<path d="M117.924 9.95605V20.8896H115.646V9.95605H117.924Z" fill="#202020"/>
<path d="M15.1719 3.9856C8.80469 3.9856 3.64355 9.14771 3.64355 15.5139C3.64355 21.8811 8.80469 27.0422 15.1719 27.0422C21.5381 27.0422 26.7002 21.8801 26.7002 15.5139C26.7002 9.14771 21.5381 3.9856 15.1719 3.9856ZM12.3477 18.6096C12.3477 19.2327 11.8428 19.7366 11.2207 19.7366C10.5977 19.7366 10.0938 19.2327 10.0938 18.6096V13.8049C10.0938 13.1819 10.5977 12.677 11.2207 12.677C11.8428 12.677 12.3477 13.1819 12.3477 13.8049V18.6096ZM20.3086 18.5286C20.3086 19.4094 19.794 19.7249 18.9131 19.7249H14.8604C13.9795 19.7249 13.2656 19.011 13.2656 18.1301V14.1438C13.2656 14.1438 13.1865 13.4807 13.9209 12.8577C14.3359 12.5051 14.9522 11.8323 15.3828 11.0159C16.2383 9.3938 16.75 8.92114 17.1397 9.0481C18.583 9.51587 17.8613 11.6555 17.3955 12.5491H18.7139C19.5938 12.5491 20.3086 13.2629 20.3086 14.1438V18.5286Z" fill="#5D5DFF"/>
</svg>
